<svg width="25" height="39" viewBox="0 0 25 39" fill="none" xmlns="http://www.w3.org/2000/svg">
<rect x="4.08789" y="7.7274" width="9.05404" height="30.4455" fill="#0B98C3"/>
<rect x="13.1421" y="4.51532" width="8.23661" height="33.6576" fill="#22A8D1"/>
<rect x="17.6362" y="18.2071" width="5.16818" height="12.2144" fill="#F47E24"/>
<path d="M22.3955 16.5749C22.0853 16.2183 21.4781 14.6432 21.2132 13.9002L20.7868 18.1255H22.3955H23.6941C23.3905 17.7572 22.7056 16.9316 22.3955 16.5749Z" fill="#22A8D1"/>
<path d="M23.5972 30.4718L20.748 30.3361V32.817C20.748 33.1116 20.9807 36.506 21.097 38.1664H23.5972V30.4718Z" fill="#22A8D1"/>
<path d="M21.6802 26.1848C21.5906 25.983 21.4602 25.8018 21.2973 25.6527L21.1629 25.5294C21.1583 25.5253 21.1528 25.5224 21.1469 25.5209C21.1409 25.5195 21.1347 25.5195 21.1288 25.521C21.1229 25.5225 21.1174 25.5255 21.1129 25.5296C21.1083 25.5337 21.1049 25.5388 21.1028 25.5446L21.0428 25.7169C21.0054 25.825 20.9365 25.9354 20.8391 26.0439C20.8326 26.0509 20.8252 26.0527 20.8201 26.0532C20.815 26.0536 20.8072 26.0527 20.8003 26.0463C20.7938 26.0407 20.7906 26.0324 20.791 26.0241C20.8081 25.746 20.725 25.4324 20.543 25.091C20.3924 24.8074 20.1831 24.5861 19.9217 24.4318L19.7309 24.3196C19.706 24.3048 19.6741 24.3242 19.6755 24.3533L19.6856 24.575C19.6926 24.7265 19.675 24.8605 19.6334 24.9718C19.5826 25.1081 19.5097 25.2347 19.4163 25.3483C19.3514 25.4273 19.2778 25.4987 19.1969 25.5612C19.0021 25.711 18.8438 25.9028 18.7336 26.1225C18.6238 26.344 18.5665 26.5879 18.5664 26.8352C18.5664 27.0532 18.6094 27.2643 18.6944 27.4634C18.7764 27.6551 18.8949 27.8291 19.0431 27.9757C19.1928 28.1235 19.3665 28.2399 19.56 28.3208C19.7605 28.4048 19.973 28.4473 20.1924 28.4473C20.4118 28.4473 20.6243 28.4048 20.8247 28.3212C21.0178 28.2409 21.1934 28.1237 21.3416 27.9762C21.4913 27.8284 21.6086 27.6556 21.6904 27.4639C21.7753 27.2653 21.8188 27.0516 21.8183 26.8357C21.8183 26.6103 21.7722 26.3913 21.6802 26.1848Z" fill="white"/>
<path d="M21.4117 24.3831C21.3869 24.3271 21.3507 24.2769 21.3055 24.2355L21.2683 24.2013C21.267 24.2002 21.2655 24.1994 21.2638 24.199C21.2622 24.1986 21.2605 24.1986 21.2588 24.199C21.2572 24.1994 21.2557 24.2003 21.2544 24.2014C21.2532 24.2025 21.2522 24.204 21.2516 24.2056L21.235 24.2533C21.2246 24.2833 21.2055 24.3139 21.1785 24.344C21.1767 24.3459 21.1746 24.3464 21.1732 24.3466C21.1718 24.3467 21.1697 24.3464 21.1677 24.3447C21.1659 24.3431 21.165 24.3408 21.1652 24.3385C21.1699 24.2614 21.1469 24.1744 21.0964 24.0798C21.0546 24.0011 20.9966 23.9398 20.9241 23.897L20.8712 23.8659C20.8643 23.8618 20.8555 23.8672 20.8559 23.8752L20.8587 23.9367C20.8606 23.9787 20.8557 24.0159 20.8442 24.0467C20.8301 24.0845 20.8099 24.1196 20.784 24.1511C20.766 24.173 20.7456 24.1928 20.7232 24.2102C20.6692 24.2517 20.6252 24.3049 20.5947 24.3658C20.5642 24.4272 20.5484 24.4948 20.5483 24.5634C20.5483 24.6239 20.5603 24.6824 20.5838 24.7376C20.6066 24.7907 20.6394 24.839 20.6805 24.8796C20.722 24.9206 20.7702 24.9529 20.8238 24.9753C20.8794 24.9986 20.9383 25.0104 20.9992 25.0104C21.06 25.0104 21.1189 24.9986 21.1745 24.9754C21.2281 24.9532 21.2767 24.9207 21.3178 24.8798C21.3593 24.8388 21.3919 24.7909 21.4145 24.7377C21.4381 24.6827 21.4501 24.6234 21.45 24.5635C21.45 24.501 21.4372 24.4403 21.4117 24.3831Z" fill="white"/>
<path fill-rule="evenodd" clip-rule="evenodd" d="M22.5625 30.4215V18.2071H23.0459V30.4215H22.5625Z" fill="#0B98C3"/>
<path fill-rule="evenodd" clip-rule="evenodd" d="M12.6586 7.87375H4.57124V38.024H12.6586V7.87375ZM4.08789 7.3904V38.5074H13.1419V7.3904H4.08789Z" fill="#0B98C3"/>
<path fill-rule="evenodd" clip-rule="evenodd" d="M21.4245 4.25774H12.6636V7.65273H13.1469V4.7411H20.9411V13.2928L20.9437 13.3107C21.0046 13.7153 21.1491 14.3743 21.3867 15.0522C21.6227 15.7257 21.959 16.443 22.4148 16.9435C22.7918 17.3575 23.0744 17.6566 23.2794 17.8668H17.3512L17.3521 18.1093C17.359 20.1664 17.3673 23.2521 17.3698 25.8234C17.3709 27.1091 17.3707 28.2659 17.368 29.1011C17.3667 29.5189 17.3648 29.8556 17.3622 30.0876C17.362 30.1107 17.3616 30.1326 17.3614 30.1535H17.3563V30.3974C17.3561 30.4041 17.3557 30.4095 17.3555 30.4138V30.4162C17.3555 30.416 17.3557 30.4138 17.3563 30.4101V30.6946H17.6254V30.6937H23.472V37.9483H12.9676V38.4317H23.9553V30.2103H17.844L17.8456 30.0931C17.8482 29.859 17.8501 29.5207 17.8514 29.1027C17.8541 28.2664 17.8543 27.1088 17.8531 25.8229C17.8508 23.3502 17.843 20.4022 17.8362 18.3501H24.6229L24.0218 17.913L24.0152 17.9077L24.0051 17.8993L23.9963 17.8916C23.9864 17.8829 23.9743 17.8722 23.9602 17.8592L23.931 17.8321C23.8759 17.7804 23.7991 17.7055 23.6974 17.6025C23.5903 17.4942 23.4564 17.3554 23.2921 17.1806C23.1443 17.0235 22.9717 16.8373 22.7721 16.618C22.3815 16.189 22.0712 15.5441 21.8428 14.8923C21.6195 14.2549 21.4826 13.635 21.4245 13.2565V4.25774Z" fill="#0B98C3"/>
<path fill-rule="evenodd" clip-rule="evenodd" d="M11.1929 30.4748H6.0356V36.4855H11.1929V30.4748ZM5.55225 29.9915V36.9688H11.6762V29.9915H5.55225Z" fill="#F47E24"/>
<path d="M6.58203 21.709H7.15924V30.0656H6.58203V21.709Z" fill="#F47E24"/>
<path d="M8.32568 21.709H8.90289V30.0656H8.32568V21.709Z" fill="#F47E24"/>
<path d="M10.0688 21.709H10.6461V30.0656H10.0688V21.709Z" fill="#F47E24"/>
<path d="M8.61475 34.4762L8.61475 33.899L18.1399 33.899L18.1399 34.4762L8.61475 34.4762Z" fill="#F47E24"/>
<path d="M2.75977 11.7389L2.75977 11.1617L8.71037 11.1617L8.71037 11.7389L2.75977 11.7389Z" fill="#F47E24"/>
<path d="M0.837891 14.6662L0.837891 14.089L8.70994 14.089L8.70994 14.6662L0.837891 14.6662Z" fill="#F47E24"/>
<path d="M1.41553 14.089L0.83832 14.089L0.838319 1.39777L1.41553 1.39777L1.41553 14.089Z" fill="#F47E24"/>
<path d="M3.33691 11.1615L2.75971 11.1615L2.75971 1.39767L3.33691 1.39767L3.33691 11.1615Z" fill="#F47E24"/>
<path d="M6.60938 7.7274L6.03217 7.7274L6.03217 0.212769L6.60937 0.212769L6.60938 7.7274Z" fill="#0B98C3"/>
<path d="M10.896 7.7274L10.3188 7.7274L10.3188 0.212769L10.896 0.212769L10.896 7.7274Z" fill="#0B98C3"/>
<path d="M10.686 1.10922L10.686 1.68642L6.24194 1.68642L6.24194 1.10922L10.686 1.10922Z" fill="#0B98C3"/>
<path d="M10.686 2.66523L10.686 3.24244L6.24194 3.24244L6.24194 2.66523L10.686 2.66523Z" fill="#0B98C3"/>
<path d="M10.686 4.22125L10.686 4.79845L6.24194 4.79845L6.24194 4.22125L10.686 4.22125Z" fill="#0B98C3"/>
<path d="M18.9282 28.5112H19.9906V29.5735H18.9282V28.5112Z" fill="white"/>
<path d="M18.1123 29.2681H19.1746V30.3304H18.1123V29.2681Z" fill="white"/>
<path d="M19.7456 29.2681H20.8079V30.3304H19.7456V29.2681Z" fill="white"/>
<path d="M21.3784 29.2681H22.4408V30.3304H21.3784V29.2681Z" fill="white"/>
<path d="M20.5483 28.5112H21.6107V29.5735H20.5483V28.5112Z" fill="white"/>
</svg>
