<svg width="23" height="19" viewBox="0 0 23 19" fill="none" xmlns="http://www.w3.org/2000/svg">
<path d="M9.40506 17.8868V13.4914C9.40506 13.1841 9.82991 12.8706 10.2548 12.8706H13.6535C14.0783 12.8706 14.5032 13.1841 14.5032 13.4976V17.8868C14.5032 18.0531 14.5927 18.2126 14.752 18.3302C14.9114 18.4478 15.1275 18.5139 15.3529 18.5139H22.1504C22.3757 18.5139 22.5918 18.4478 22.7512 18.3302C22.9105 18.2126 23 18.0531 23 17.8868V9.10846C23.0002 9.02606 22.9784 8.94445 22.9359 8.86827C22.8933 8.7921 22.8308 8.72286 22.7519 8.66453L20.451 6.96779V2.83819C20.451 2.6719 20.3615 2.51241 20.2021 2.39482C20.0428 2.27723 19.8266 2.21117 19.6013 2.21117H17.9019C17.6766 2.21117 17.4605 2.27723 17.3011 2.39482C17.1418 2.51241 17.0522 2.6719 17.0522 2.83819V4.45969L12.5557 1.14021C12.4768 1.08181 12.383 1.03549 12.2798 1.00387C12.1765 0.972265 12.0659 0.955994 11.9541 0.955994C11.8424 0.955994 11.7317 0.972265 11.6285 1.00387C11.5252 1.03549 11.4315 1.08181 11.3525 1.14021L1.15631 8.66453C1.07746 8.72286 1.01496 8.7921 0.972387 8.86827C0.929815 8.94445 0.908005 9.02606 0.908204 9.10846V17.8868C0.908204 18.0531 0.997725 18.2126 1.15707 18.3302C1.31642 18.4478 1.53254 18.5139 1.75789 18.5139H8.55538C8.78073 18.5139 8.99685 18.4478 9.1562 18.3302C9.31554 18.2126 9.40506 18.0531 9.40506 17.8868Z" fill="#A1A1A1"/>
</svg>
