<svg width="23" height="18" viewBox="0 0 23 18" fill="none" xmlns="http://www.w3.org/2000/svg">
<path d="M8.81376 17.0754V12.6476C8.81376 12.3381 9.2386 12.0222 9.66344 12.0222H13.0622C13.487 12.0222 13.9119 12.3381 13.9119 12.6539V17.0754C13.9119 17.2429 14.0014 17.4036 14.1607 17.5221C14.3201 17.6405 14.5362 17.7071 14.7616 17.7071H21.559C21.7844 17.7071 22.0005 17.6405 22.1599 17.5221C22.3192 17.4036 22.4087 17.2429 22.4087 17.0754V8.23234C22.4089 8.14933 22.3871 8.06711 22.3445 7.99038C22.302 7.91364 22.2395 7.8439 22.1606 7.78513L19.8597 6.07589V1.91585C19.8597 1.74833 19.7702 1.58767 19.6108 1.46921C19.4515 1.35075 19.2353 1.2842 19.01 1.2842H17.3106C17.0853 1.2842 16.8691 1.35075 16.7098 1.46921C16.5504 1.58767 16.4609 1.74833 16.4609 1.91585V3.5493L11.9644 0.205346C11.8855 0.146523 11.7917 0.0998529 11.6885 0.0680097C11.5852 0.0361664 11.4746 0.0197754 11.3628 0.0197754C11.2511 0.0197754 11.1404 0.0361664 11.0372 0.0680097C10.9339 0.0998529 10.8402 0.146523 10.7612 0.205346L0.565004 7.78513C0.48615 7.8439 0.423651 7.91364 0.381078 7.99038C0.338506 8.06711 0.316696 8.14933 0.316896 8.23234V17.0754C0.316896 17.2429 0.406416 17.4036 0.565763 17.5221C0.72511 17.6405 0.941231 17.7071 1.16658 17.7071H7.96407C8.18942 17.7071 8.40554 17.6405 8.56489 17.5221C8.72424 17.4036 8.81376 17.2429 8.81376 17.0754Z" fill="white"/>
</svg>
