<svg width="23" height="23" viewBox="0 0 23 23" fill="none" xmlns="http://www.w3.org/2000/svg">
<path d="M11.0943 22.2033C10.5218 22.205 9.95473 22.0929 9.42588 21.8738C8.89702 21.6546 8.41693 21.3326 8.01344 20.9265L2.20324 15.1163C1.37965 14.2942 0.926453 13.199 0.926453 12.0355C0.926453 10.872 1.37965 9.77676 2.20324 8.95317C3.84898 7.30743 6.71922 7.30743 8.36496 8.95317L10.0906 10.6788L14.5485 2.65637C14.9665 1.90236 15.5988 1.28935 16.3655 0.894938C17.1321 0.50053 17.9985 0.342468 18.855 0.440763C19.7115 0.539059 20.5196 0.889291 21.1769 1.44712C21.8343 2.00494 22.3113 2.74528 22.5476 3.57438C22.7068 4.12463 22.755 4.70104 22.6895 5.27009C22.6239 5.83915 22.4458 6.38948 22.1656 6.8891L14.9029 19.962C14.5238 20.6397 13.9713 21.2044 13.302 21.5983C12.6328 21.9921 11.8708 22.2009 11.0943 22.2033ZM5.2841 10.5829C4.89482 10.5829 4.53168 10.734 4.25715 11.0085C3.98262 11.2831 3.83155 11.6462 3.83155 12.0355C3.83155 12.4248 3.98262 12.7879 4.25715 13.0624L10.0673 18.8726C10.2266 19.031 10.4202 19.1504 10.6333 19.2214C10.8463 19.2925 11.0729 19.3133 11.2953 19.2822C11.5177 19.2511 11.7299 19.169 11.9152 19.0422C12.1006 18.9155 12.2541 18.7476 12.3638 18.5516L19.6266 5.47867C19.7198 5.31226 19.7791 5.129 19.8011 4.93951C19.823 4.75001 19.8071 4.55805 19.7544 4.37473C19.7023 4.19064 19.6141 4.01877 19.4949 3.86914C19.3757 3.7195 19.2279 3.59511 19.0601 3.5032C18.7226 3.32307 18.3283 3.28117 17.9605 3.38633C17.5927 3.49149 17.2802 3.73549 17.089 4.06679L10.7602 15.4562L6.31251 11.0085C6.17767 10.8732 6.01738 10.7659 5.84087 10.6929C5.66436 10.6198 5.47513 10.5825 5.2841 10.5829Z" fill="white"/>
</svg>
