<svg width="28" height="38" viewBox="0 0 28 38" fill="none" xmlns="http://www.w3.org/2000/svg">
<path d="M27.4851 0.985535H0.821289V34.3938H27.4851V0.985535Z" fill="white"/>
<path fill-rule="evenodd" clip-rule="evenodd" d="M1.30464 1.46889H27.1201V34.1828H1.30464V1.46889ZM0.821289 0.985535H1.30464H27.1201H27.6035V1.46889V34.1828V34.6661H27.1201H18.1187V37.8344H17.448V34.6661H14.5477V37.8344H13.877V34.6661H10.9767V37.8344H10.306V34.6661H1.30464H0.821289V34.1828V1.46889V0.985535Z" fill="white"/>
<path fill-rule="evenodd" clip-rule="evenodd" d="M27.1201 26.4579H1.30464V34.1533H27.1201V26.4579ZM0.821289 25.9746V34.6367H27.6034V25.9746H0.821289Z" fill="#0B98C3"/>
<path fill-rule="evenodd" clip-rule="evenodd" d="M7.44462 31.1761C7.75074 31.1761 7.9989 30.9279 7.9989 30.6218C7.9989 30.3157 7.75074 30.0675 7.44462 30.0675C7.1385 30.0675 6.89035 30.3157 6.89035 30.6218C6.89035 30.9279 7.1385 31.1761 7.44462 31.1761ZM7.44462 31.5386C7.95095 31.5386 8.36142 31.1281 8.36142 30.6218C8.36142 30.1155 7.95095 29.705 7.44462 29.705C6.93829 29.705 6.52783 30.1155 6.52783 30.6218C6.52783 31.1281 6.93829 31.5386 7.44462 31.5386Z" fill="#0B98C3"/>
<path fill-rule="evenodd" clip-rule="evenodd" d="M4.76689 31.1761C5.07301 31.1761 5.32117 30.9279 5.32117 30.6218C5.32117 30.3157 5.07301 30.0675 4.76689 30.0675C4.46077 30.0675 4.21261 30.3157 4.21261 30.6218C4.21261 30.9279 4.46077 31.1761 4.76689 31.1761ZM4.76689 31.5386C5.27322 31.5386 5.68368 31.1281 5.68368 30.6218C5.68368 30.1155 5.27322 29.705 4.76689 29.705C4.26056 29.705 3.8501 30.1155 3.8501 30.6218C3.8501 31.1281 4.26056 31.5386 4.76689 31.5386Z" fill="#0B98C3"/>
<path fill-rule="evenodd" clip-rule="evenodd" d="M22.9032 32.1245C23.8204 32.1245 24.564 31.381 24.564 30.4637C24.564 29.5465 23.8204 28.8029 22.9032 28.8029C21.986 28.8029 21.2424 29.5465 21.2424 30.4637C21.2424 31.381 21.986 32.1245 22.9032 32.1245ZM22.9032 32.487C24.0206 32.487 24.9265 31.5812 24.9265 30.4637C24.9265 29.3463 24.0206 28.4404 22.9032 28.4404C21.7858 28.4404 20.8799 29.3463 20.8799 30.4637C20.8799 31.5812 21.7858 32.487 22.9032 32.487Z" fill="#0B98C3"/>
<path d="M16.2465 18.2106C16.1239 17.9347 15.9457 17.6871 15.723 17.4832L15.5392 17.3146C15.533 17.309 15.5255 17.305 15.5174 17.3031C15.5092 17.3011 15.5008 17.3011 15.4926 17.3032C15.4845 17.3052 15.4771 17.3092 15.4709 17.3149C15.4647 17.3205 15.46 17.3275 15.4571 17.3354L15.375 17.5709C15.3239 17.7187 15.2298 17.8696 15.0966 18.018C15.0877 18.0275 15.0776 18.03 15.0707 18.0306C15.0637 18.0313 15.053 18.03 15.0435 18.0212C15.0347 18.0136 15.0303 18.0022 15.0309 17.9909C15.0543 17.6107 14.9406 17.182 14.6918 16.7153C14.4859 16.3276 14.1999 16.0251 13.8425 15.8142L13.5817 15.6607C13.5476 15.6405 13.504 15.6671 13.5059 15.7068L13.5198 16.0099C13.5293 16.2171 13.5053 16.4002 13.4484 16.5524C13.379 16.7387 13.2792 16.9117 13.1516 17.067C13.0629 17.175 12.9623 17.2726 12.8517 17.3581C12.5854 17.5628 12.3689 17.8251 12.2183 18.1254C12.0682 18.4282 11.9899 18.7617 11.9897 19.0997C11.9897 19.3978 12.0485 19.6864 12.1647 19.9585C12.2769 20.2206 12.4388 20.4584 12.6414 20.6588C12.846 20.8609 13.0834 21.02 13.348 21.1305C13.6221 21.2455 13.9126 21.3035 14.2125 21.3035C14.5125 21.3035 14.8029 21.2455 15.077 21.1312C15.3409 21.0213 15.5809 20.8611 15.7836 20.6595C15.9882 20.4574 16.1486 20.2212 16.2604 19.9592C16.3764 19.6877 16.4359 19.3955 16.4353 19.1004C16.4353 18.7922 16.3721 18.4929 16.2465 18.2106Z" fill="#0B98C3"/>
</svg>
