<svg width="23" height="25" viewBox="0 0 23 25" fill="none" xmlns="http://www.w3.org/2000/svg">
<path d="M8.56376 23.862V17.9057C8.56376 17.4893 8.9886 17.0645 9.41344 17.0645H12.8122C13.237 17.0645 13.6619 17.4893 13.6619 17.9142V23.862C13.6619 24.0873 13.7514 24.3035 13.9107 24.4628C14.0701 24.6222 14.2862 24.7117 14.5116 24.7117H21.309C21.5344 24.7117 21.7505 24.6222 21.9099 24.4628C22.0692 24.3035 22.1587 24.0873 22.1587 23.862V11.9664C22.1589 11.8547 22.1371 11.7441 22.0945 11.6409C22.052 11.5377 21.9895 11.4439 21.9106 11.3648L19.6097 9.06555V3.46952C19.6097 3.24417 19.5202 3.02805 19.3608 2.8687C19.2015 2.70936 18.9853 2.61984 18.76 2.61984H17.0606C16.8353 2.61984 16.6191 2.70936 16.4598 2.8687C16.3004 3.02805 16.2109 3.24417 16.2109 3.46952V5.66681L11.7144 1.16857C11.6355 1.08944 11.5417 1.02666 11.4385 0.983829C11.3352 0.940994 11.2246 0.918945 11.1128 0.918945C11.0011 0.918945 10.8904 0.940994 10.7872 0.983829C10.6839 1.02666 10.5902 1.08944 10.5112 1.16857L0.315004 11.3648C0.23615 11.4439 0.173651 11.5377 0.131078 11.6409C0.0885062 11.7441 0.0666965 11.8547 0.0668959 11.9664V23.862C0.0668959 24.0873 0.156416 24.3035 0.315763 24.4628C0.47511 24.6222 0.691231 24.7117 0.916582 24.7117H7.71407C7.93942 24.7117 8.15554 24.6222 8.31489 24.4628C8.47424 24.3035 8.56376 24.0873 8.56376 23.862Z" fill="#0B98C3"/>
</svg>
