<svg width="51" height="48" viewBox="0 0 51 48" fill="none" xmlns="http://www.w3.org/2000/svg">
<rect x="0.65332" y="14.5841" width="26.7822" height="29.8641" fill="#0B98C3"/>
<path fill-rule="evenodd" clip-rule="evenodd" d="M1.13667 15.0672H26.9521V43.9942H1.13667V15.0672ZM0.65332 14.5839H1.13667H26.9521H27.4355V15.0672V43.9942V44.4775H26.9521H17.9507V47.6458H17.28V44.4775H14.3797V47.6458H13.709V44.4775H10.8088V47.6458H10.138V44.4775H1.13667H0.65332V43.9942V15.0672V14.5839Z" fill="#0B98C3"/>
<path fill-rule="evenodd" clip-rule="evenodd" d="M26.9521 36.2694H1.13667V43.9648H26.9521V36.2694ZM0.65332 35.786V44.4481H27.4355V35.786H0.65332Z" fill="white"/>
<path fill-rule="evenodd" clip-rule="evenodd" d="M7.27568 40.9875C7.5818 40.9875 7.82996 40.7394 7.82996 40.4333C7.82996 40.1271 7.5818 39.879 7.27568 39.879C6.96956 39.879 6.7214 40.1271 6.7214 40.4333C6.7214 40.7394 6.96956 40.9875 7.27568 40.9875ZM7.27568 41.35C7.78201 41.35 8.19247 40.9396 8.19247 40.4333C8.19247 39.9269 7.78201 39.5165 7.27568 39.5165C6.76935 39.5165 6.35889 39.9269 6.35889 40.4333C6.35889 40.9396 6.76935 41.35 7.27568 41.35Z" fill="white"/>
<path fill-rule="evenodd" clip-rule="evenodd" d="M4.59843 40.9875C4.90455 40.9875 5.15271 40.7394 5.15271 40.4333C5.15271 40.1271 4.90455 39.879 4.59843 39.879C4.29231 39.879 4.04415 40.1271 4.04415 40.4333C4.04415 40.7394 4.29231 40.9875 4.59843 40.9875ZM4.59843 41.35C5.10476 41.35 5.51522 40.9396 5.51522 40.4333C5.51522 39.9269 5.10476 39.5165 4.59843 39.5165C4.0921 39.5165 3.68164 39.9269 3.68164 40.4333C3.68164 40.9396 4.0921 41.35 4.59843 41.35Z" fill="white"/>
<path fill-rule="evenodd" clip-rule="evenodd" d="M22.7347 41.936C23.652 41.936 24.3955 41.1924 24.3955 40.2752C24.3955 39.3579 23.652 38.6144 22.7347 38.6144C21.8175 38.6144 21.0739 39.3579 21.0739 40.2752C21.0739 41.1924 21.8175 41.936 22.7347 41.936ZM22.7347 42.2985C23.8522 42.2985 24.7581 41.3926 24.7581 40.2752C24.7581 39.1577 23.8522 38.2519 22.7347 38.2519C21.6173 38.2519 20.7114 39.1577 20.7114 40.2752C20.7114 41.3926 21.6173 42.2985 22.7347 42.2985Z" fill="white"/>
<path d="M16.078 28.0221C15.9554 27.7462 15.7772 27.4985 15.5545 27.2946L15.3708 27.126C15.3645 27.1205 15.357 27.1165 15.3489 27.1145C15.3408 27.1125 15.3323 27.1126 15.3242 27.1146C15.3161 27.1167 15.3086 27.1207 15.3024 27.1263C15.2962 27.1319 15.2915 27.139 15.2887 27.1469L15.2066 27.3824C15.1554 27.5302 15.0614 27.6811 14.9281 27.8295C14.9193 27.8389 14.9092 27.8415 14.9022 27.8421C14.8953 27.8427 14.8845 27.8415 14.8751 27.8326C14.8662 27.8251 14.8618 27.8137 14.8624 27.8023C14.8858 27.4222 14.7721 26.9934 14.5233 26.5268C14.3175 26.139 14.0314 25.8366 13.674 25.6256L13.4132 25.4722C13.3791 25.452 13.3356 25.4785 13.3374 25.5183L13.3513 25.8214C13.3608 26.0285 13.3368 26.2117 13.28 26.3638C13.2105 26.5501 13.1107 26.7231 12.9832 26.8785C12.8944 26.9864 12.7938 27.0841 12.6832 27.1696C12.417 27.3743 12.2004 27.6366 12.0499 27.9368C11.8997 28.2397 11.8215 28.5731 11.8213 28.9112C11.8213 29.2092 11.88 29.4978 11.9962 29.77C12.1084 30.032 12.2703 30.2698 12.473 30.4703C12.6776 30.6723 12.915 30.8315 13.1796 30.942C13.4536 31.0569 13.7441 31.115 14.0441 31.115C14.344 31.115 14.6345 31.0569 14.9085 30.9426C15.1725 30.8328 15.4125 30.6725 15.6152 30.4709C15.8197 30.2688 15.9801 30.0327 16.0919 29.7706C16.2079 29.4992 16.2674 29.207 16.2668 28.9118C16.2668 28.6037 16.2037 28.3043 16.078 28.0221Z" fill="white"/>
<path fill-rule="evenodd" clip-rule="evenodd" d="M31.8803 18.6645H31.8799V43.8302H50.4262V18.6645H50.4258C50.395 16.4058 48.5075 14.584 46.1837 14.584H36.1224C33.7986 14.584 31.9111 16.4058 31.8803 18.6645ZM49.9428 18.696L49.9425 18.6711C49.9154 16.6876 48.2541 15.0674 46.1837 15.0674H36.1224C34.0519 15.0674 32.3906 16.6876 32.3636 18.6711L32.3632 18.6959V43.3469H49.9428V18.696Z" fill="#0B98C3"/>
<path d="M40.6108 11.1147H41.2782V14.584H40.6108V11.1147Z" fill="#0B98C3"/>
<path d="M40.6108 11.1147L40.6108 10.7865C40.6108 10.5922 40.7684 10.4346 40.9627 10.4346L43.5263 10.4346L43.5263 11.1147L40.6108 11.1147Z" fill="#0B98C3"/>
<path d="M33.0293 16.1319C32.1327 16.9389 32.1178 19.2326 32.2225 20.2786L32.1328 43.5448H50.2661C50.2287 36.0882 50.1764 20.9062 50.2661 19.8303C50.3781 18.4855 49.7505 17.0734 49.1453 16.0199C48.6612 15.1771 47.0907 14.9066 46.366 14.8767H36.7053C35.226 14.8767 34.1501 15.1233 33.0293 16.1319Z" fill="#0B98C3"/>
<path d="M46.77 40.6419C46.77 41.4259 46.1345 42.0614 45.3506 42.0614C44.5667 42.0614 43.9312 41.4259 43.9312 40.6419C43.9312 39.858 44.5667 39.2225 45.3506 39.2225C46.1345 39.2225 46.77 39.858 46.77 40.6419Z" fill="#F47E24"/>
<path d="M38.3501 40.6419C38.3501 41.4258 37.7146 42.0613 36.9307 42.0613C36.1467 42.0613 35.5112 41.4258 35.5112 40.6419C35.5112 39.858 36.1467 39.2225 36.9307 39.2225C37.7146 39.2225 38.3501 39.858 38.3501 40.6419Z" fill="#F47E24"/>
<path d="M36.5596 41.8034H37.3016V46.9972H36.5596V41.8034Z" fill="#F47E24"/>
<path d="M44.9795 41.8034H45.7215V46.9972H44.9795V41.8034Z" fill="#F47E24"/>
<path fill-rule="evenodd" clip-rule="evenodd" d="M16.1945 11.3522V10.4155H16.6778V11.3874L16.6756 11.4007C16.677 11.4045 16.6816 11.4137 16.696 11.426C16.7287 11.4538 16.8305 11.5109 17.0855 11.5076C17.6608 11.5001 24.3438 11.5044 27.6104 11.5075L27.615 11.5075L27.6195 11.5077C27.7224 11.5117 27.8796 11.5362 28.0192 11.6063C28.1612 11.6776 28.334 11.8265 28.3262 12.0821L27.8441 12.0675C27.8443 12.0679 27.8443 12.068 27.844 12.0675L27.8431 12.0675C27.8431 12.0671 27.8431 12.0667 27.8431 12.0664C27.8395 12.0621 27.8282 12.0513 27.8022 12.0382C27.7444 12.0091 27.6631 11.9937 27.6049 11.9909C24.3329 11.9878 17.6623 11.9835 17.0918 11.9909C16.7738 11.995 16.5387 11.9265 16.3831 11.7943C16.2315 11.6656 16.1791 11.495 16.1945 11.3522Z" fill="#0B98C3"/>
<path fill-rule="evenodd" clip-rule="evenodd" d="M11.7905 1.75507L13.2481 10.5995H30.0924L30.9386 1.75507H11.7905ZM12.3601 2.23842L13.6583 10.1161H29.6531L30.4068 2.23842H12.3601Z" fill="#0B98C3"/>
<path fill-rule="evenodd" clip-rule="evenodd" d="M10.1902 5.96099H12.5928L12.0374 2.77371H11.2044L10.4679 1.98897H8.01709V2.62884H10.1178L10.5645 3.12383H10.1902V3.40151H8.91048V5.33319H10.1902V5.96099ZM10.1782 3.87236H9.33309V4.91063H10.1782V3.87236Z" fill="#0B98C3"/>
<path d="M11.79 0.43811H12.4028V1.75508H11.79V0.43811Z" fill="#0B98C3"/>
<path d="M30.3257 0.43811H30.9384V1.75508H30.3257V0.43811Z" fill="#0B98C3"/>
<path fill-rule="evenodd" clip-rule="evenodd" d="M32.6861 4.59485C32.6083 4.5397 32.5068 4.52623 32.4408 4.53357L32.4275 4.53504H30.6387V4.05169H32.402C32.5552 4.03779 32.775 4.06544 32.9656 4.20053C33.176 4.34966 33.3146 4.60401 33.3146 4.97054C33.3146 5.56862 33.3755 10.0596 33.4061 12.2331L32.9228 12.2399C32.8923 10.0696 32.8312 5.57309 32.8312 4.97054C32.8312 4.73677 32.7502 4.64033 32.6861 4.59485Z" fill="#0B98C3"/>
<path d="M30.7563 1.96098H12.0039L13.3976 10.4186H29.8376L30.7563 1.96098Z" fill="#0B98C3"/>
</svg>
