<svg width="51" height="38" viewBox="0 0 51 38" fill="none" xmlns="http://www.w3.org/2000/svg">
<path d="M32.2295 7.93984V33.2233L47.4265 33.2009V10.0916C47.4265 9.20997 47.3189 7.1867 46.8885 6.14667C46.4582 5.10664 45.1851 4.59261 44.6023 4.46559H36.3762C36.1072 4.35352 35.2555 4.29973 34.0003 4.98113C32.7451 5.66253 32.2967 7.23752 32.2295 7.93984Z" fill="white"/>
<path fill-rule="evenodd" clip-rule="evenodd" d="M32.0379 8.29818H32.0376V33.4639H47.6551V8.29818H47.6548C47.6288 6.03947 46.0394 4.21771 44.0825 4.21771H35.6102C33.6533 4.21771 32.0639 6.03947 32.0379 8.29818ZM47.1717 8.32901L47.1715 8.30374C47.1478 6.24166 45.7113 4.70106 44.0825 4.70106H35.6102C33.9814 4.70106 32.5449 6.24166 32.5212 8.30374L32.5209 8.32902V32.9806H47.1717V8.32901Z" fill="white"/>
<path d="M39.3042 0.748352H39.9716V4.21769H39.3042V0.748352Z" fill="white"/>
<path d="M39.3042 0.748343V0.420201C39.3042 0.225851 39.4618 0.0682984 39.6561 0.0682984L42.2196 0.0682983V0.748343H39.3042Z" fill="white"/>
<path d="M35.2031 30.2755C34.4192 30.2755 33.7837 29.64 33.7837 28.856C33.7837 28.0721 34.4192 27.4366 35.2031 27.4366C35.9871 27.4366 36.6226 28.0721 36.6226 28.856C36.6226 29.64 35.9871 30.2755 35.2031 30.2755Z" fill="#F47E24"/>
<path d="M34.0415 28.4851V29.2271H28.8477V28.4851H34.0415Z" fill="#F47E24"/>
<path d="M44.3486 22.9162C45.1326 22.9162 45.7681 23.5517 45.7681 24.3357C45.7681 25.1196 45.1326 25.7551 44.3486 25.7551C43.5647 25.7551 42.9292 25.1196 42.9292 24.3357C42.9292 23.5517 43.5647 22.9162 44.3486 22.9162Z" fill="#F47E24"/>
<path d="M45.5098 24.7066V23.9646H50.7036V24.7066H45.5098Z" fill="#F47E24"/>
<path d="M45.4629 30.2756C45.4629 31.0595 44.8274 31.695 44.0435 31.695C43.2595 31.695 42.624 31.0595 42.624 30.2756C42.624 29.4916 43.2595 28.8561 44.0435 28.8561C44.8274 28.8561 45.4629 29.4916 45.4629 30.2756Z" fill="#F47E24"/>
<path d="M43.6724 31.437H44.4144V36.6308H43.6724V31.437Z" fill="#F47E24"/>
<path d="M27.5132 4.21777H0.730957V34.0819H27.5132V4.21777Z" fill="white"/>
<path fill-rule="evenodd" clip-rule="evenodd" d="M1.21431 4.70088H27.0298V33.6279H1.21431V4.70088ZM0.730957 4.21753H1.21431H27.0298H27.5131V4.70088V33.6279V34.1112H27.0298H18.0283V37.2795H17.3576V34.1112H14.4574V37.2795H13.7867V34.1112H10.8864V37.2795H10.2157V34.1112H1.21431H0.730957V33.6279V4.70088V4.21753Z" fill="white"/>
<path fill-rule="evenodd" clip-rule="evenodd" d="M27.0298 25.9031H1.21431V33.5985H27.0298V25.9031ZM0.730957 25.4197V34.0818H27.5131V25.4197H0.730957Z" fill="#0B98C3"/>
<path fill-rule="evenodd" clip-rule="evenodd" d="M7.35331 30.6212C7.65943 30.6212 7.90759 30.3731 7.90759 30.0669C7.90759 29.7608 7.65943 29.5127 7.35331 29.5127C7.0472 29.5127 6.79904 29.7608 6.79904 30.0669C6.79904 30.3731 7.0472 30.6212 7.35331 30.6212ZM7.35331 30.9837C7.85964 30.9837 8.27011 30.5733 8.27011 30.0669C8.27011 29.5606 7.85964 29.1501 7.35331 29.1501C6.84698 29.1501 6.43652 29.5606 6.43652 30.0669C6.43652 30.5733 6.84698 30.9837 7.35331 30.9837Z" fill="#0B98C3"/>
<path fill-rule="evenodd" clip-rule="evenodd" d="M4.67607 30.6212C4.98219 30.6212 5.23035 30.3731 5.23035 30.0669C5.23035 29.7608 4.98219 29.5127 4.67607 29.5127C4.36995 29.5127 4.12179 29.7608 4.12179 30.0669C4.12179 30.3731 4.36995 30.6212 4.67607 30.6212ZM4.67607 30.9837C5.1824 30.9837 5.59286 30.5733 5.59286 30.0669C5.59286 29.5606 5.1824 29.1501 4.67607 29.1501C4.16974 29.1501 3.75928 29.5606 3.75928 30.0669C3.75928 30.5733 4.16974 30.9837 4.67607 30.9837Z" fill="#0B98C3"/>
<path fill-rule="evenodd" clip-rule="evenodd" d="M22.8124 31.5697C23.7296 31.5697 24.4732 30.8261 24.4732 29.9089C24.4732 28.9916 23.7296 28.2481 22.8124 28.2481C21.8951 28.2481 21.1516 28.9916 21.1516 29.9089C21.1516 30.8261 21.8951 31.5697 22.8124 31.5697ZM22.8124 31.9322C23.9298 31.9322 24.8357 31.0263 24.8357 29.9089C24.8357 28.7914 23.9298 27.8856 22.8124 27.8856C21.6949 27.8856 20.7891 28.7914 20.7891 29.9089C20.7891 31.0263 21.6949 31.9322 22.8124 31.9322Z" fill="#0B98C3"/>
<path d="M16.1557 17.6558C16.0331 17.3798 15.8549 17.1322 15.6322 16.9283L15.4484 16.7597C15.4422 16.7541 15.4347 16.7502 15.4265 16.7482C15.4184 16.7462 15.4099 16.7462 15.4018 16.7483C15.3937 16.7504 15.3862 16.7544 15.3801 16.76C15.3739 16.7656 15.3691 16.7727 15.3663 16.7805L15.2842 17.0161C15.2331 17.1638 15.139 17.3148 15.0058 17.4632C14.9969 17.4726 14.9868 17.4752 14.9799 17.4758C14.9729 17.4764 14.9622 17.4752 14.9527 17.4663C14.9439 17.4587 14.9394 17.4474 14.9401 17.436C14.9634 17.0559 14.8498 16.6271 14.601 16.1604C14.3951 15.7727 14.1091 15.4702 13.7517 15.2593L13.4909 15.1059C13.4568 15.0857 13.4132 15.1122 13.4151 15.152L13.429 15.4551C13.4384 15.6622 13.4145 15.8453 13.3576 15.9975C13.2882 16.1838 13.1884 16.3568 13.0608 16.5122C12.9721 16.6201 12.8714 16.7178 12.7609 16.8033C12.4946 17.008 12.2781 17.2703 12.1275 17.5705C11.9773 17.8734 11.8991 18.2068 11.8989 18.5449C11.8989 18.8429 11.9577 19.1315 12.0738 19.4037C12.186 19.6657 12.3479 19.9035 12.5506 20.104C12.7552 20.306 12.9926 20.4652 13.2572 20.5757C13.5313 20.6906 13.8217 20.7487 14.1217 20.7487C14.4216 20.7487 14.7121 20.6906 14.9862 20.5763C15.2501 20.4664 15.4901 20.3062 15.6928 20.1046C15.8974 19.9025 16.0578 19.6663 16.1695 19.4043C16.2856 19.1329 16.3451 18.8407 16.3445 18.5455C16.3445 18.2373 16.2813 17.938 16.1557 17.6558Z" fill="#0B98C3"/>
</svg>
